<svg width="22" height="22" viewBox="0 0 22 22" fill="none" xmlns="http://www.w3.org/2000/svg">
<path d="M11 20.2812C5.88225 20.2812 1.71875 16.1174 1.71875 11C1.71875 5.88225 5.88225 1.71875 11 1.71875C16.1178 1.71875 20.2812 5.88225 20.2812 11C20.2812 16.1174 16.1178 20.2812 11 20.2812ZM11 2.75172C6.45116 2.75172 2.75 6.45184 2.75 11C2.75 15.5482 6.45116 19.2483 11 19.2483C15.5488 19.2483 19.25 15.5482 19.25 11C19.25 6.45184 15.5488 2.75172 11 2.75172Z" fill="#0094DF"/>
<path d="M12.1791 15.82V10.012V8.93433H8.73608V9.96695H9.76905V15.82H8.73608V16.8526H13.2121V15.82H12.1791Z" fill="#0094DF"/>
<path d="M10.9934 8.03679C11.7727 8.03679 12.4045 7.40502 12.4045 6.62569C12.4045 5.84637 11.7727 5.2146 10.9934 5.2146C10.214 5.2146 9.58228 5.84637 9.58228 6.62569C9.58228 7.40502 10.214 8.03679 10.9934 8.03679Z" fill="#0094DF"/>
</svg>
